<svg width="96" height="116" viewBox="0 0 96 116" fill="none" xmlns="http://www.w3.org/2000/svg">
<path d="M19.0024 103.243C18.4884 104.681 18.0788 106.17 17.7845 107.7C17.2083 110.696 19.5031 113.477 22.554 113.477H72.7387C75.7896 113.477 78.0844 110.696 77.5081 107.7C75.6487 98.0307 69.2095 89.9916 60.5366 85.9266" stroke="#D53232" stroke-width="4" stroke-miterlimit="10" stroke-linecap="round" stroke-linejoin="round"/>
<path d="M34.7559 85.9266C29.8357 88.2329 25.6355 91.819 22.5814 96.2554" stroke="#D53232" stroke-width="4" stroke-miterlimit="10" stroke-linecap="round" stroke-linejoin="round"/>
<path d="M28.007 90.2592C30.0956 99.1732 38.0955 105.811 47.6464 105.811C57.1972 105.811 65.1973 99.1732 67.2858 90.2592" stroke="#D53232" stroke-width="4" stroke-miterlimit="10" stroke-linecap="round" stroke-linejoin="round"/>
<path d="M83.4674 60.1966C88.6785 60.7578 93.3247 56.5758 93.2926 51.3292C93.2926 48.9893 92.3898 46.8612 90.915 45.2711" stroke="#D53232" stroke-width="4" stroke-miterlimit="10" stroke-linecap="round" stroke-linejoin="round"/>
<path d="M4.37774 45.2709C2.90297 46.8612 2.00017 48.9893 2.00017 51.329C1.96787 56.5755 6.61445 60.7576 11.8254 60.1964" stroke="#D53232" stroke-width="4" stroke-miterlimit="10" stroke-linecap="round" stroke-linejoin="round"/>
<path d="M6.92419 59.2949V67.8107C6.92419 74.3259 12.2058 79.6074 18.721 79.6074H23.9296" stroke="#D53232" stroke-width="4" stroke-miterlimit="10" stroke-linecap="round" stroke-linejoin="round"/>
<path d="M71.3632 79.6074H76.5718C83.087 79.6074 88.3686 74.3259 88.3686 67.8107V59.2949" stroke="#D53232" stroke-width="4" stroke-miterlimit="10" stroke-linecap="round" stroke-linejoin="round"/>
<path d="M4.93803 38.2955C4.56996 40.5665 4.37549 42.8961 4.37549 45.2712C6.83964 45.2712 9.15777 45.0487 11.4207 44.345C13.0763 38.6916 15.3749 34.5788 18.1838 31.5869" stroke="#D53232" stroke-width="4" stroke-miterlimit="10" stroke-linecap="round" stroke-linejoin="round"/>
<path d="M23.5794 30.0285C22.4979 33.2941 21.5462 37.7814 21.956 41.881C40.2283 39.4767 53.9217 33.5065 61.6181 28.1433" stroke="#D53232" stroke-width="4" stroke-miterlimit="10" stroke-linecap="round" stroke-linejoin="round"/>
<path d="M77.1082 31.5867C79.9189 34.575 82.215 38.6828 83.8702 44.3338C86.0793 44.9302 88.4196 45.2712 90.9174 45.2712C90.9174 42.8961 90.7229 40.5667 90.3549 38.2955" stroke="#D53232" stroke-width="4" stroke-miterlimit="10" stroke-linecap="round" stroke-linejoin="round"/>
<path d="M50.0342 9.74609H45.2585C39.0718 9.74609 34.0094 14.5463 33.5846 20.625C38.0369 20.0394 42.7562 19.7225 47.6463 19.7225C52.5365 19.7225 57.2558 20.0394 61.7081 20.625C61.2833 14.5463 56.2211 9.74609 50.0342 9.74609Z" stroke="#D53232" stroke-width="4" stroke-miterlimit="10" stroke-linecap="round" stroke-linejoin="round"/>
<path d="M71.2035 8.97099C64.425 4.56239 56.3354 2 47.6463 2C26.1235 2 8.27399 17.7146 4.93799 38.2954C13.2097 31.714 29.2334 27.252 47.6463 27.252C66.0592 27.252 82.0832 31.7142 90.3546 38.2954C88.8032 28.7232 84.1106 20.2048 77.3704 13.8295" stroke="#D53232" stroke-width="4" stroke-miterlimit="10" stroke-linecap="round" stroke-linejoin="round"/>
<path d="M11.4279 44.3207C10.9885 46.5973 10.7557 48.9475 10.7557 51.3527C10.7557 71.7269 27.2722 88.2434 47.6464 88.2434C68.0206 88.2434 84.537 71.7269 84.537 51.3527C84.537 48.9433 84.3033 46.589 83.8624 44.3083" stroke="#D53232" stroke-width="4" stroke-miterlimit="10" stroke-linecap="round" stroke-linejoin="round"/>
<path d="M34.8893 85.9773C35.069 92.8716 40.7088 98.4064 47.6463 98.4064C54.5839 98.4064 60.2237 92.8713 60.4034 85.9773" stroke="#D53232" stroke-width="4" stroke-miterlimit="10" stroke-linecap="round" stroke-linejoin="round"/>
</svg>
